#!OML:ASF H:\Dans Jumps\Project 1\Capture day 1\Session 1\subject.ASF
:FULLY-SPECIFIED
:DEGREES
598
root 0.11723 17.7698 -6.44595 6.90845 -0.268981 -1.22896
lowerback -1.35567 -0.135615 -0.310284
upperback 3.88531 -0.22822 1.4053
thorax 4.77538 -0.154924 1.61363
lowerneck -10.8912 0.540857 -1.7824
upperneck 38.1324 1.00515 0.775682
head 15.0951 0.275702 0.80251
rclavicle 1.49089e-016 -5.76476e-015
rhumerus -12.0205 6.96791 -91.0434
rradius 33.8159
rwrist 26.1318
rhand -19.5009 -23.9147
rfingers 7.12502
rthumb 6.82161 -53.7848
lclavicle 1.49089e-016 -5.76476e-015
lhumerus -9.03333 -31.2708 94.9162
lradius 33.0204
lwrist 13.6776
lhand -25.9382 -6.33109
lfingers 7.12502
lthumb 0.605419 23.6478
rfemur -16.0867 -2.47405 20.3906
rtibia 21.6432
rfoot -11.8662 -2.72292
rtoes 15.676
lfemur -14.0826 6.41444 -18.9601
ltibia 17.8471
lfoot -8.61366 7.40922
ltoes 8.24405
599
root 0.115647 17.7701 -6.44661 6.91918 -0.234975 -1.22394
lowerback -1.37152 -0.157121 -0.330368
upperback 3.86991 -0.256259 1.40941
thorax 4.76932 -0.169599 1.62757
lowerneck -10.8838 0.54255 -1.79051
upperneck 38.1399 1.00715 0.781401
head 15.0969 0.275911 0.806655
rclavicle -7.95139e-016 -1.39149e-015
rhumerus -11.9955 7.62642 -91.2112
rradius 33.9904
rwrist 25.9793
rhand -19.5653 -23.8992
rfingers 7.12502
rthumb 6.75948 -53.7713
lclavicle -7.95139e-016 -1.39149e-015
lhumerus -9.04664 -32.0534 95.054
lradius 33.4897
lwrist 13.9247
lhand -25.9279 -6.42971
lfingers 7.12502
lthumb 0.615371 23.5491
rfemur -16.1001 -2.4904 20.393
rtibia 21.6503
rfoot -11.8676 -2.74019
rtoes 15.6976
lfemur -14.0991 6.38974 -18.9595
ltibia 17.8415
lfoot -8.60665 7.39892
ltoes 8.25247
600
root 0.113976 17.7705 -6.44767 6.94559 -0.189913 -1.2194
lowerback -1.39473 -0.180862 -0.346967
upperback 3.84802 -0.287325 1.41242
thorax 4.76078 -0.185573 1.63821
lowerneck -10.8813 0.543032 -1.7952
upperneck 38.1514 1.0064 0.787571
head 15.1019 0.275466 0.810036
rclavicle -2.98177e-016 -1.8487e-014
rhumerus -11.9791 8.24569 -91.3695
rradius 34.1343
rwrist 25.8648
rhand -19.6279 -23.8697
rfingers 7.12502
rthumb 6.69906 -53.7438
lclavicle -2.98177e-016 -1.8487e-014
lhumerus -9.07119 -32.7974 95.1813
lradius 33.9253
lwrist 14.1611
lhand -25.9182 -6.51336
lfingers 7.12502
lthumb 0.624745 23.4655
rfemur -16.1312 -2.51109 20.3973
rtibia 21.6562
rfoot -11.8654 -2.76449
rtoes 15.7245
lfemur -14.1354 6.35296 -18.9595
ltibia 17.8342
lfoot -8.5936 7.38789
ltoes 8.25857
601
root 0.112358 17.771 -6.44849 6.97501 -0.150056 -1.21345
lowerback -1.42169 -0.202408 -0.363775
upperback 3.82591 -0.315427 1.41468
thorax 4.75406 -0.200071 1.64833
lowerneck -10.8818 0.542093 -1.79784
upperneck 38.1665 1.00448 0.790025
head 15.1095 0.274288 0.81137
rclavicle -1.49089e-016 -1.23246e-014
rhumerus -11.9713 8.82738 -91.5161
rradius 34.2491
rwrist 25.7872
rhand -19.6873 -23.8296
rfingers 7.12502
rthumb 6.64168 -53.7054
lclavicle -1.49089e-016 -1.23246e-014
lhumerus -9.10811 -33.4902 95.3034
lradius 34.3256
lwrist 14.3736
lhand -25.9112 -6.58884
lfingers 7.12502
lthumb 0.631524 23.39
rfemur -16.1649 -2.53224 20.4
rtibia 21.6607
rfoot -11.863 -2.78491
rtoes 15.7258
lfemur -14.1725 6.31637 -18.9615
ltibia 17.8257
lfoot -8.57983 7.38103
ltoes 8.26201
